<?xml version="1.0" standalone="no"?><!DOCTYPE svg PUBLIC "-//W3C//DTD SVG 1.1//EN" "http://www.w3.org/Graphics/SVG/1.1/DTD/svg11.dtd"><svg t="1602588760302" class="icon" viewBox="0 0 1024 1024" version="1.1" xmlns="http://www.w3.org/2000/svg" p-id="5163" xmlns:xlink="http://www.w3.org/1999/xlink" width="200" height="200"><defs><style type="text/css"></style></defs><path d="M873 257h-61v-60.8c0-70-57-127-127-127H191c-70 0-127 57-127 127v589.1c0 93.4 76 169.3 169.3 169.3h601c69.3 0 125.6-56.4 125.6-125.6V344c0.1-48-38.9-87-86.9-87zM633 898.7H233.4c-62.5 0-113.4-50.9-113.4-113.4v-589c0-39.1 31.8-71 71-71h494c39.2 0 71 31.8 71 71v594.3c0 59.7-48.5 108.2-108.2 108.2H633z m271-69.6c0 38.4-31.3 69.7-69.7 69.7h-63.2c25.4-29 40.9-66.8 40.9-108.3V313h61c17.1 0 31 13.9 31 31v485.1z" fill="#1f73ba" p-id="5164"></path><path d="M613.4 302.9H262.6c-15.5 0-28 12.5-28 28s12.5 28 28 28h350.7c15.5 0 28-12.5 28-28s-12.5-28-27.9-28zM613.4 495.5H262.6c-15.5 0-28 12.5-28 28s12.5 28 28 28h350.7c15.5 0 28-12.5 28-28s-12.5-28-27.9-28zM613.4 665.2H262.6c-15.5 0-28 12.5-28 28s12.5 28 28 28h350.7c15.5 0 28-12.5 28-28s-12.5-28-27.9-28z" fill="#1f73ba" p-id="5165"></path></svg>